<?xml version="1.0" encoding="utf-8"?><svg xmlns="http://www.w3.org/2000/svg" xmlns:xlink="http://www.w3.org/1999/xlink"><symbol viewBox="0 0 127 38" id="vitami" xmlns="http://www.w3.org/2000/svg"><path fill-rule="evenodd" clip-rule="evenodd" d="M114.79 37.3h6.047V12.702h-6.047v24.6z"/><mask id="aa" maskUnits="userSpaceOnUse" x="46" y="12" width="68" height="26"><path fill-rule="evenodd" clip-rule="evenodd" d="M46.775 12.043H113v25.926H46.775V12.043z"/></mask><g mask="url(#aa)"><path fill-rule="evenodd" clip-rule="evenodd" d="M113 37.302V23.093c0-7.371-3.546-10.968-10.185-10.968-3.546 0-6.047 1.155-8.093 3.818-1.728-2.663-3.956-3.818-7.411-3.818-2.679 0-4.424.657-6.047 2.334v-1.757h-6.048v7.021l-2.213 2.47-2.52 2.81-4.21 4.693c-1.2 1.338-3.085 2.603-5.319 2.78-.299.023-.601.052-.908.052-4.256 0-7.705-3.37-7.705-7.525 0-4.156 3.45-7.526 7.705-7.526s7.705 3.37 7.705 7.526v.052c-.001.207-.013.41-.03.613l.03-.034.566-.631 3.493-3.896 1.506-1.676v-6.729h-5.281v1.952a13.416 13.416 0 0 0-7.989-2.611c-7.33 0-13.27 5.802-13.27 12.96 0 6.927 5.565 12.584 12.566 12.942.233.01.468.008.704.017 2.956.116 6.37-1.153 8.962-4.037l4.965-5.526.006.08 1.237-1.377 5.376-5.981 1.265-1.408c1.236-1.378 2.392-2.17 4.317-2.17 3.183 0 4.91 1.42 4.91 6.26v13.499h6.048V25.18c0-5.862 1.728-7.638 5.093-7.638 2.819 0 4.728 1.332 4.728 6.261v13.499H113zm-44.862 0h5.178v-5.76l-5.178 5.76zm7.078-7.79v7.79h6.048V25.18c0-.944.037-1.781.114-2.523l-6.162 6.855z"/></g><path fill-rule="evenodd" clip-rule="evenodd" d="M46.562 18.074v-5.373h-3.637V4.486h-6.047v8.215h-2.956v5.373h2.956v19.227h6.047V18.074h3.637z"/><mask id="ab" maskUnits="userSpaceOnUse" x="0" y="0" width="127" height="38"><path fill-rule="evenodd" clip-rule="evenodd" d="M0 37.968h126.651V.528H0v37.44z"/></mask><g mask="url(#ab)" fill-rule="evenodd" clip-rule="evenodd"><path d="M26.316 37.3h6.048V12.702h-6.048v24.6zm-1.218-24.599h-6.82L12.55 27.95 6.73 12.7H0l10.139 24.6h4.82l10.14-24.6zm83.966-10.979a8.737 8.737 0 0 1 6.261 2.472 8.32 8.32 0 0 1 2.531 6.114 8.733 8.733 0 0 1-6.261-2.472 8.315 8.315 0 0 1-2.531-6.114z"/><path d="M126.65 1.722a8.731 8.731 0 0 0-6.26 2.472 8.317 8.317 0 0 0-2.532 6.114 8.73 8.73 0 0 0 6.26-2.472 8.312 8.312 0 0 0 2.532-6.114z"/></g></symbol></svg>