<svg width="26" height="24" viewBox="0 0 26 24" fill="none" xmlns="http://www.w3.org/2000/svg">
<path fill-rule="evenodd" clip-rule="evenodd" d="M20.9812 7.40785H25.3892H25.39C25.582 7.40915 25.762 7.5068 25.8765 7.67345C25.9921 7.8414 26.0291 8.05753 25.9766 8.25804L22.7405 20.6306C22.2063 22.6251 20.5321 23.9961 18.6291 24H7.37086C5.4678 23.9963 3.79372 22.6253 3.25955 20.6306L0.0233635 8.25804C-0.0291017 8.05752 0.00786018 7.84141 0.12352 7.67345C0.237986 7.5068 0.418046 7.40915 0.610016 7.40785H5.01803L8.049 0.372128C8.19564 0.0466354 8.55455 -0.0913719 8.85621 0.0635613C9.15669 0.218481 9.28904 0.607784 9.15311 0.938485L6.36658 7.40792H19.6291L16.8425 0.938485C16.7066 0.607781 16.839 0.218494 17.1406 0.0635613C17.4411 -0.0913653 17.8 0.0466361 17.9478 0.372128L20.9812 7.40785ZM18.2699 21.3333C19.505 21.3356 20.5928 20.4908 20.9374 19.2623L23.6786 9.33333H2.63095L5.37214 19.251C5.71236 20.484 6.80126 21.3344 8.03965 21.3333H18.2699Z" fill="white"/>
</svg>
