<svg width="24" height="24" viewBox="0 0 24 24" fill="none" xmlns="http://www.w3.org/2000/svg">
<path id="Instagram Copy" fill-rule="evenodd" clip-rule="evenodd" d="M11.9189 0C8.68188 0 8.27599 0.0137205 7.00472 0.0717249C5.7361 0.129587 4.86968 0.331089 4.11155 0.625748C3.32778 0.930295 2.66309 1.33784 2.00044 2.00044C1.33784 2.66309 0.930295 3.32778 0.625748 4.11155C0.331089 4.86968 0.129587 5.7361 0.0717249 7.00472C0.0137205 8.27599 0 8.68188 0 11.9189C0 15.1558 0.0137205 15.5617 0.0717249 16.833C0.129587 18.1016 0.331089 18.968 0.625748 19.7261C0.930295 20.5099 1.33784 21.1746 2.00044 21.8373C2.66309 22.4999 3.32778 22.9074 4.11155 23.212C4.86968 23.5066 5.7361 23.7081 7.00472 23.766C8.27599 23.824 8.68188 23.8377 11.9189 23.8377C15.1558 23.8377 15.5617 23.824 16.833 23.766C18.1016 23.7081 18.968 23.5066 19.7261 23.212C20.5099 22.9074 21.1746 22.4999 21.8373 21.8373C22.4999 21.1746 22.9074 20.5099 23.212 19.7261C23.5066 18.968 23.7081 18.1016 23.766 16.833C23.824 15.5617 23.8377 15.1558 23.8377 11.9189C23.8377 8.68188 23.824 8.27599 23.766 7.00472C23.7081 5.7361 23.5066 4.86968 23.212 4.11155C22.9074 3.32778 22.4999 2.66309 21.8373 2.00044C21.1746 1.33784 20.5099 0.930295 19.7261 0.625748C18.968 0.331089 18.1016 0.129587 16.833 0.0717249C15.5617 0.0137205 15.1558 0 11.9189 0ZM11.9189 2.14754C15.1013 2.14754 15.4783 2.1597 16.7351 2.21704C17.8972 2.27003 18.5283 2.4642 18.9482 2.62742C19.5046 2.84364 19.9016 3.10191 20.3187 3.51902C20.7358 3.93607 20.9941 4.33311 21.2103 4.88945C21.3735 5.30944 21.5677 5.94053 21.6207 7.10261C21.678 8.35941 21.6902 8.73639 21.6902 11.9189C21.6902 15.1013 21.678 15.4783 21.6207 16.7351C21.5677 17.8972 21.3735 18.5283 21.2103 18.9482C20.9941 19.5046 20.7358 19.9016 20.3187 20.3187C19.9016 20.7358 19.5046 20.9941 18.9482 21.2103C18.5283 21.3735 17.8972 21.5677 16.7351 21.6207C15.4785 21.678 15.1015 21.6902 11.9189 21.6902C8.73615 21.6902 8.35926 21.678 7.10261 21.6207C5.94053 21.5677 5.30944 21.3735 4.88945 21.2103C4.33311 20.9941 3.93607 20.7358 3.51902 20.3187C3.10196 19.9016 2.84364 19.5046 2.62742 18.9482C2.4642 18.5283 2.27003 17.8972 2.21704 16.7351C2.1597 15.4783 2.14754 15.1013 2.14754 11.9189C2.14754 8.73639 2.1597 8.35941 2.21704 7.10261C2.27003 5.94053 2.4642 5.30944 2.62742 4.88945C2.84364 4.33311 3.10191 3.93607 3.51902 3.51902C3.93607 3.10191 4.33311 2.84364 4.88945 2.62742C5.30944 2.4642 5.94053 2.27003 7.10261 2.21704C8.35941 2.1597 8.73639 2.14754 11.9189 2.14754ZM5.79836 11.9189C5.79836 8.53858 8.53858 5.79836 11.9189 5.79836C15.2991 5.79836 18.0393 8.53858 18.0393 11.9189C18.0393 15.2991 15.2991 18.0393 11.9189 18.0393C8.53858 18.0393 5.79836 15.2991 5.79836 11.9189ZM11.9189 15.8918C9.72464 15.8918 7.9459 14.1131 7.9459 11.9189C7.9459 9.72464 9.72464 7.9459 11.9189 7.9459C14.1131 7.9459 15.8918 9.72464 15.8918 11.9189C15.8918 14.1131 14.1131 15.8918 11.9189 15.8918ZM18.2811 6.98679C19.0711 6.98679 19.7114 6.34647 19.7114 5.55655C19.7114 4.76663 19.0711 4.12626 18.2811 4.12626C17.4913 4.12626 16.8509 4.76663 16.8509 5.55655C16.8509 6.34647 17.4913 6.98679 18.2811 6.98679Z" fill="black"/>
</svg>
