<svg width="235" height="71" viewBox="0 0 235 71" fill="none" xmlns="http://www.w3.org/2000/svg">
<path fill-rule="evenodd" clip-rule="evenodd" d="M212.406 69.6764H223.596V23.0664H212.406V69.6764Z" fill="black"/>
<mask id="mask0" mask-type="alpha" maskUnits="userSpaceOnUse" x="86" y="21" width="124" height="50">
<path fill-rule="evenodd" clip-rule="evenodd" d="M86.5527 21.8164H209.095V70.9401H86.5527V21.8164Z" fill="white"/>
</mask>
<g mask="url(#mask0)">
<path fill-rule="evenodd" clip-rule="evenodd" d="M209.095 69.6754V42.7534C209.095 28.7864 202.533 21.9724 190.249 21.9724C183.687 21.9724 179.059 24.1594 175.274 29.2064C172.076 24.1594 167.953 21.9724 161.559 21.9724C156.603 21.9724 153.373 23.2164 150.37 26.3934V23.0654H149.444H139.18V35.3314V36.3684L135.084 41.0474L130.42 46.3714L122.632 55.2634C120.41 57.7994 116.923 60.1964 112.789 60.5304C112.236 60.5754 111.677 60.6294 111.109 60.6294C103.234 60.6294 96.8507 54.2454 96.8507 46.3714C96.8507 38.4974 103.234 32.1134 111.109 32.1134C118.983 32.1134 125.366 38.4974 125.366 46.3714V46.3914V46.4104V46.4314V46.4504V46.4714C125.364 46.8624 125.343 47.2494 125.31 47.6324L125.366 47.5684L126.414 46.3714L132.877 38.9904L135.664 35.8154V23.0654H125.891V26.7634C121.779 23.6574 116.659 21.8164 111.109 21.8164C97.5457 21.8164 86.5527 32.8094 86.5527 46.3714C86.5527 59.4974 96.8517 70.2164 109.807 70.8934C110.238 70.9144 110.672 70.9084 111.109 70.9264C116.579 71.1464 122.896 68.7414 127.692 63.2774L136.88 52.8074L136.891 52.9574L139.18 50.3494L149.127 39.0164L151.468 36.3494C153.754 33.7384 155.894 32.2364 159.456 32.2364C165.345 32.2364 168.542 34.9284 168.542 44.0994V69.6754H179.733V46.7074C179.733 35.6014 182.93 32.2364 189.156 32.2364C194.372 32.2364 197.906 34.7594 197.906 44.0994V69.6754H209.095ZM126.083 69.6754H135.664V58.7614L126.083 69.6754ZM139.18 54.9164V69.6754H150.37V46.7074C150.37 44.9194 150.439 43.3324 150.581 41.9264L139.18 54.9164Z" fill="black"/>
</g>
<path fill-rule="evenodd" clip-rule="evenodd" d="M86.1566 33.247V23.066H79.4266V7.50195H68.2366V23.066H62.7676V33.247H68.2366V69.677H79.4266V33.247H86.1566Z" fill="black"/>
<mask id="mask1" mask-type="alpha" maskUnits="userSpaceOnUse" x="0" y="0" width="235" height="71">
<path fill-rule="evenodd" clip-rule="evenodd" d="M0 70.941H234.355V0H0V70.941Z" fill="white"/>
</mask>
<g mask="url(#mask1)">
<path fill-rule="evenodd" clip-rule="evenodd" d="M48.6953 69.6764H59.8853V23.0664H48.6953V69.6764Z" fill="black"/>
<path fill-rule="evenodd" clip-rule="evenodd" d="M46.442 23.0664H33.822L23.221 51.9564L12.451 23.0664H0L18.761 69.6764H27.68L46.442 23.0664Z" fill="black"/>
<path fill-rule="evenodd" clip-rule="evenodd" d="M201.811 2.26391C205.996 2.19491 210.203 3.75491 213.396 6.94791C216.588 10.1409 218.15 14.3479 218.08 18.5329C213.895 18.6029 209.688 17.0419 206.495 13.8489C203.301 10.6559 201.742 6.44991 201.811 2.26391Z" fill="black"/>
<path fill-rule="evenodd" clip-rule="evenodd" d="M234.353 2.26391C230.168 2.19491 225.961 3.75491 222.769 6.94791C219.576 10.1409 218.015 14.3479 218.084 18.5329C222.27 18.6029 226.477 17.0419 229.669 13.8489C232.863 10.6559 234.423 6.44991 234.353 2.26391Z" fill="black"/>
</g>
</svg>
