<svg width="52" height="58" viewBox="0 0 52 58" fill="none" xmlns="http://www.w3.org/2000/svg">
<path fill-rule="evenodd" clip-rule="evenodd" d="M48.6782 29.899C47.2315 29.899 46.0469 31.0711 46.0469 32.5025C46.0469 43.6341 36.9046 52.6802 25.6547 52.6802C14.4047 52.6802 5.26245 43.6341 5.26245 32.5025C5.26245 22.8687 12.1024 14.7989 21.1809 12.7798L18.2207 16.5555C17.3008 17.6615 17.5629 19.3549 18.6807 20.2016C19.1406 20.5931 19.7342 20.7228 20.3252 20.7228C21.1141 20.7228 21.9029 20.3973 22.4297 19.7464L29.0078 11.3512C29.8635 10.2452 29.7325 8.68151 28.6121 7.77131L20.1941 0.608876C19.0763 -0.301333 17.4318 -0.171675 16.4451 0.868218C15.5252 1.97422 15.6562 3.60145 16.7072 4.51426L20.3251 7.57294C8.74893 10.0469 0 20.2654 0 32.5028C0 46.497 11.5117 57.8876 25.6547 57.8876C39.7978 57.8876 51.3095 46.497 51.3095 32.5028C51.3095 31.0714 50.1249 29.8992 48.6782 29.8992L48.6782 29.899Z" fill="#A738AC"/>
</svg>
