<svg width="59" height="59" viewBox="0 0 59 59" fill="none" xmlns="http://www.w3.org/2000/svg">
<path fill-rule="evenodd" clip-rule="evenodd" d="M29.6294 0.685547C27.9744 0.685547 26.719 1.53488 25.6168 2.28057L25.5116 2.35172C24.384 3.11339 23.3486 3.7858 22.7505 3.94652C22.1524 4.10723 20.9178 4.04173 19.561 3.94652L19.4417 3.93809C18.1128 3.84399 16.5931 3.73638 15.1576 4.56538C13.7165 5.39757 13.0496 6.76951 12.4658 7.97067L12.4203 8.06437C11.8252 9.28725 11.2629 10.3881 10.8255 10.8255C10.388 11.2628 9.28725 11.8252 8.06437 12.4203L7.97046 12.4659C6.76934 13.0497 5.39752 13.7165 4.56538 15.1576C3.71675 16.6272 3.8261 18.1849 3.92094 19.5358L3.92271 19.561L3.9263 19.6121C4.02013 20.9486 4.10517 22.16 3.94652 22.7505C3.78585 23.3486 3.11339 24.3839 2.35172 25.5116L2.28047 25.617C1.5348 26.7192 0.685547 27.9746 0.685547 29.6294C0.685547 31.2843 1.53495 32.5398 2.28066 33.6421L2.35172 33.7471C3.11339 34.8747 3.7858 35.9102 3.94652 36.5082C4.10517 37.0986 4.02017 38.3094 3.92637 39.6456L3.92271 39.6978L3.92094 39.723C3.82611 41.0739 3.71676 42.6316 4.56538 44.1012C5.39756 45.5423 6.7695 46.2091 7.97066 46.7929L8.06437 46.8385C9.28725 47.4336 10.3881 47.9958 10.8255 48.4333C11.2628 48.8707 11.8252 49.9715 12.4203 51.1944L12.4659 51.2883C13.0497 52.4894 13.7165 53.8612 15.1576 54.6934C16.6272 55.542 18.1849 55.4326 19.5357 55.3378H19.5358L19.561 55.336L19.612 55.3324C20.9486 55.2386 22.1599 55.1536 22.7505 55.3122C23.3486 55.4729 24.3839 56.1453 25.5116 56.907L25.617 56.9783C26.7192 57.7239 27.9746 58.5732 29.6294 58.5732C31.2843 58.5732 32.5398 57.7238 33.6421 56.9781L33.7471 56.907C34.8747 56.1453 35.9102 55.4729 36.5082 55.3122C37.0986 55.1536 38.3094 55.2386 39.6456 55.3324H39.6456L39.6978 55.336L39.723 55.3378C41.0739 55.4326 42.6316 55.542 44.1012 54.6934C45.5423 53.8612 46.2091 52.4892 46.7929 51.2881L46.8385 51.1944C47.4336 49.9715 47.9958 48.8706 48.4333 48.4333C48.8707 47.9959 49.9715 47.4336 51.1944 46.8385L51.2883 46.7928C52.4894 46.209 53.8612 45.5422 54.6934 44.1012C55.5224 42.6655 55.4147 41.1459 55.3206 39.817L55.3122 39.6978C55.217 38.3411 55.1516 37.1063 55.3122 36.5082C55.4729 35.9102 56.1453 34.8748 56.907 33.7471L56.9783 33.6418C57.7239 32.5395 58.5732 31.2842 58.5732 29.6294C58.5732 27.9744 57.7238 26.7189 56.9781 25.6167L56.907 25.5116C56.1453 24.384 55.4729 23.3486 55.3122 22.7505C55.1515 22.1524 55.217 20.9178 55.3122 19.561L55.3206 19.4417C55.4147 18.1128 55.5224 16.5932 54.6934 15.1576C53.8612 13.7165 52.4892 13.0496 51.2881 12.4658L51.1944 12.4203C49.9715 11.8252 48.8706 11.2629 48.4333 10.8255C47.9959 10.388 47.4336 9.28725 46.8385 8.06437L46.7928 7.97044C46.209 6.76933 45.5422 5.39752 44.1012 4.56538C42.6655 3.73638 41.1459 3.84399 39.817 3.93809L39.6978 3.94652C38.3411 4.04173 37.1063 4.10718 36.5082 3.94652C35.9102 3.78585 34.8748 3.11339 33.7471 2.35172L33.6418 2.28046C32.5395 1.5348 31.2842 0.685547 29.6294 0.685547ZM29.6294 3.73226C30.0935 3.73226 31.0099 4.16963 32.0572 4.87477C32.2364 4.99543 32.4177 5.12227 32.6027 5.25167C33.4985 5.87846 34.4799 6.56503 35.7228 6.89794C36.9621 7.22988 38.1547 7.12289 39.2418 7.02537C39.47 7.0049 39.6936 6.98484 39.912 6.96935C41.1705 6.88009 42.1763 6.9753 42.5779 7.20737C42.9795 7.43945 43.5478 8.26062 44.1012 9.39719C44.1944 9.58846 44.2864 9.78605 44.3803 9.98764C44.8444 10.984 45.3541 12.0782 46.2673 12.9914C47.1805 13.9046 48.2747 14.4143 49.2711 14.8784L49.2711 14.8784C49.4727 14.9723 49.6703 15.0643 49.8615 15.1575C50.9981 15.7109 51.8192 16.2792 52.0513 16.6808C52.2834 17.0824 52.3786 18.0882 52.2893 19.3467C52.2739 19.5651 52.2538 19.7887 52.2333 20.017C52.1358 21.104 52.0288 22.2966 52.3608 23.5359C52.6936 24.7787 53.3801 25.7599 54.0068 26.6557L54.0071 26.6561L54.0077 26.657L54.0089 26.6586C54.1376 26.8427 54.2638 27.0231 54.3839 27.2015C55.089 28.2488 55.5264 29.1652 55.5264 29.6293C55.5264 30.0935 55.0891 31.0099 54.3839 32.0572C54.2633 32.2364 54.1364 32.4177 54.007 32.6026C53.3802 33.4985 52.6937 34.4798 52.3608 35.7227C52.0288 36.9621 52.1358 38.1547 52.2333 39.2417L52.2333 39.242L52.2334 39.2424C52.2538 39.4704 52.2739 39.6938 52.2893 39.912C52.3786 41.1705 52.2804 42.1762 52.0513 42.5778C51.8192 42.9795 50.9981 43.5478 49.8615 44.1012C49.6704 44.1943 49.473 44.2862 49.2716 44.38L49.2711 44.3803C48.2747 44.8444 47.1805 45.3541 46.2673 46.2673C45.3541 47.1805 44.8444 48.2747 44.3803 49.271L44.3801 49.2715C44.2863 49.473 44.1943 49.6704 44.1012 49.8615C43.5478 50.998 42.9795 51.8192 42.5779 52.0513C42.1763 52.2834 41.1705 52.3786 39.912 52.2893C39.6936 52.2738 39.47 52.2538 39.2417 52.2333C38.1547 52.1358 36.9621 52.0288 35.7228 52.3607C34.48 52.6936 33.4988 53.3801 32.603 54.0068C32.4179 54.1362 32.2365 54.2632 32.0572 54.3839C31.0099 55.089 30.0935 55.5264 29.6294 55.5264C29.1652 55.5264 28.2488 55.089 27.2015 54.3839C27.0224 54.2633 26.8411 54.1364 26.6562 54.0071L26.6561 54.007L26.6561 54.007C25.7602 53.3802 24.7789 52.6936 23.5359 52.3607C22.2967 52.0288 21.104 52.1358 20.017 52.2333C19.7887 52.2538 19.5651 52.2738 19.3467 52.2893C18.0882 52.3786 17.0825 52.2804 16.6809 52.0513C16.2792 51.8192 15.7109 50.998 15.1575 49.8615C15.0644 49.6702 14.9723 49.4726 14.8784 49.271C14.4143 48.2747 13.9046 47.1805 12.9914 46.2673C12.0782 45.3541 10.984 44.8444 9.98767 44.3803C9.78608 44.2864 9.5885 44.1943 9.39723 44.1012C8.26066 43.5478 7.43949 42.9795 7.20741 42.5778C6.97533 42.1762 6.88013 41.1705 6.96939 39.912C6.98488 39.6936 7.00494 39.4699 7.02542 39.2417C7.12294 38.1546 7.22993 36.9621 6.89798 35.7227C6.56509 34.4799 5.87862 33.4987 5.25193 32.603L5.25186 32.6029C5.12241 32.4178 4.99551 32.2365 4.87481 32.0572C4.16973 31.0099 3.73229 30.0935 3.73229 29.6293C3.73229 29.1652 4.16967 28.2488 4.87481 27.2015C4.99544 27.0223 5.12226 26.8411 5.25162 26.6562L5.2517 26.656C5.87849 25.7602 6.56507 24.7788 6.89798 23.5359C7.22991 22.2966 7.12293 21.104 7.02541 20.0169C7.00493 19.7887 6.98488 19.5651 6.96939 19.3467C6.88013 18.0882 6.97534 17.0824 7.20741 16.6808C7.43948 16.2792 8.26066 15.7109 9.39723 15.1575C9.58848 15.0643 9.78605 14.9723 9.98762 14.8784L9.98766 14.8784L9.98769 14.8784C10.984 14.4143 12.0782 13.9046 12.9914 12.9914C13.9046 12.0782 14.4143 10.984 14.8784 9.98765L14.8785 9.98756C14.9724 9.78599 15.0644 9.58844 15.1575 9.39719C15.7109 8.26062 16.2792 7.43946 16.6809 7.20737C17.0825 6.97529 18.0882 6.88009 19.3467 6.96935C19.5651 6.98484 19.7888 7.0049 20.017 7.02538C21.1041 7.1229 22.2966 7.22989 23.5359 6.89794C24.7788 6.56505 25.76 5.87859 26.6557 5.25189L26.6558 5.25183C26.8408 5.12238 27.0222 4.99548 27.2015 4.87477C28.2488 4.16969 29.1652 3.73226 29.6294 3.73226ZM40.7451 16.3477C40.9801 16.1008 41.2896 15.9431 41.6258 15.8955L41.6259 15.8955C42.2834 15.8003 42.9261 16.1425 43.2147 16.7405C43.5033 17.3415 43.3724 18.0585 42.8874 18.5138L18.5137 42.8875C18.2281 43.179 17.8383 43.3456 17.4277 43.3486C17.0171 43.3516 16.6244 43.188 16.3387 42.8964C16.0501 42.6048 15.8924 42.2121 15.8984 41.8015C15.9043 41.3909 16.0739 41.0011 16.3715 40.7214L40.7451 16.3477ZM22.0126 15.9193C18.6654 15.9193 15.9192 18.6655 15.9192 22.0127C15.9192 25.3599 18.6654 28.1061 22.0126 28.1061C25.3598 28.1061 28.106 25.3599 28.106 22.0127C28.106 18.6655 25.3598 15.9193 22.0126 15.9193ZM25.0593 22.0127C25.0593 20.3108 23.7145 18.966 22.0126 18.966C20.3107 18.966 18.9659 20.3108 18.9659 22.0127C18.9659 23.7146 20.3107 25.0594 22.0126 25.0594C23.7145 25.0594 25.0593 23.7146 25.0593 22.0127ZM37.2461 31.1528C33.8989 31.1528 31.1527 33.8991 31.1527 37.2463C31.1527 40.5934 33.8989 43.3397 37.2461 43.3397C40.5933 43.3397 43.3396 40.5934 43.3396 37.2463C43.3396 33.8991 40.5933 31.1528 37.2461 31.1528ZM40.2929 37.2463C40.2929 35.5444 38.948 34.1995 37.2461 34.1995C35.5443 34.1995 34.1994 35.5444 34.1994 37.2463C34.1994 38.9482 35.5443 40.293 37.2461 40.293C38.948 40.293 40.2929 38.9482 40.2929 37.2463Z" fill="#A738AC"/>
</svg>
