<svg width="24" height="21" viewBox="0 0 24 21" fill="none" xmlns="http://www.w3.org/2000/svg">
<path id="Twitter" fill-rule="evenodd" clip-rule="evenodd" d="M23.8377 2.4457C22.9618 2.86052 22.0188 3.14105 21.0296 3.2664C22.0398 2.62177 22.8149 1.59963 23.1801 0.382C22.2342 0.978875 21.1891 1.4131 20.0725 1.64588C19.1827 0.632688 17.9108 0 16.5032 0C13.8042 0 11.6145 2.33527 11.6145 5.2152C11.6145 5.62405 11.6565 6.02098 11.7405 6.40298C7.67586 6.18512 4.07299 4.11098 1.65942 0.952016C1.23827 1.72497 0.99761 2.62177 0.99761 3.57677C0.99761 5.3853 1.8609 6.98195 3.17332 7.91755C2.373 7.89218 1.61744 7.65492 0.957034 7.26695V7.33112C0.957034 9.85888 2.64304 11.9673 4.88171 12.4448C4.47175 12.5672 4.03941 12.6284 3.59307 12.6284C3.27826 12.6284 2.97044 12.597 2.67242 12.5359C3.29505 14.607 5.09998 16.1156 7.24072 16.1559C5.56731 17.5556 3.45735 18.3897 1.16691 18.3897C0.772343 18.3897 0.381974 18.3658 0 18.3181C2.16452 19.7954 4.7362 20.6593 7.49676 20.6593C16.4934 20.6593 21.4115 12.7134 21.4115 5.82102C21.4115 5.59421 21.4073 5.3674 21.3989 5.14506C22.3546 4.40941 23.1843 3.49172 23.8377 2.4457Z" fill="black"/>
</svg>
