<svg width="218" height="67" viewBox="0 0 218 67" fill="none" xmlns="http://www.w3.org/2000/svg">
<path fill-rule="evenodd" clip-rule="evenodd" d="M197.04 64.8678H207.421V22.0879H197.04V64.8678Z" fill="#FF1F9E"/>
<path fill-rule="evenodd" clip-rule="evenodd" d="M193.969 64.8687V40.1595C193.969 27.3405 187.882 21.0856 176.487 21.0856C170.399 21.0856 166.106 23.0938 162.595 27.726C159.628 23.0938 155.803 21.0856 149.872 21.0856C145.275 21.0856 142.278 22.2283 139.492 25.1432V22.0888H138.633H129.112V33.3475V34.2993L125.312 38.5937L120.986 43.4801L113.761 51.6404C111.7 53.9688 108.465 56.1688 104.63 56.4754C104.117 56.5167 103.599 56.5662 103.072 56.5662C95.7663 56.5662 89.845 50.707 89.845 43.4801C89.845 36.2533 95.7663 30.394 103.072 30.394C110.376 30.394 116.297 36.2533 116.297 43.4801V43.4985V43.5159V43.5343V43.5526V43.571C116.295 43.9308 116.276 44.286 116.245 44.6375L116.297 44.5778L117.269 43.4801L123.265 36.7058L125.85 33.7918V22.0888H116.784V25.4838C112.97 22.633 108.22 20.9434 103.072 20.9434C90.4898 20.9434 80.292 31.0328 80.292 43.4801C80.292 55.5273 89.846 65.3653 101.864 65.9857C102.264 66.0059 102.666 66.0004 103.072 66.0169C108.146 66.2188 114.006 64.0115 118.455 58.9966L126.978 49.3872L126.989 49.5248L129.112 47.1312L138.339 36.7287L140.511 34.2809C142.632 31.8855 144.617 30.506 147.921 30.506C153.384 30.506 156.35 32.9777 156.35 41.394V64.8687H166.731V43.7885C166.731 33.5953 169.697 30.506 175.473 30.506C180.311 30.506 183.59 32.8226 183.59 41.394V64.8687H193.969ZM116.962 64.8687H125.85V54.8509L116.962 64.8687ZM129.112 51.3228V64.8687H139.492V43.7885C139.492 42.1475 139.556 40.6909 139.688 39.4005L129.112 51.3228Z" fill="#FF1F9E"/>
<path fill-rule="evenodd" clip-rule="evenodd" d="M79.9246 31.4317V22.0875H73.6814V7.80273H63.3009V22.0875H58.2275V31.4317H63.3009V64.8675H73.6814V31.4317H79.9246Z" fill="#FF1F9E"/>
<mask id="mask0" mask-type="alpha" maskUnits="userSpaceOnUse" x="0" y="0" width="218" height="67">
<path fill-rule="evenodd" clip-rule="evenodd" d="M0 66.0291H217.402V0.917969H0V66.0291Z" fill="white"/>
</mask>
<g mask="url(#mask0)">
<path fill-rule="evenodd" clip-rule="evenodd" d="M45.1729 64.8678H55.5534V22.0879H45.1729V64.8678Z" fill="#FF1F9E"/>
<path fill-rule="evenodd" clip-rule="evenodd" d="M43.0824 22.0879H31.3753L21.5412 48.6034L11.5503 22.0879H0L17.4038 64.8679H25.6776L43.0824 22.0879Z" fill="#FF1F9E"/>
<path fill-rule="evenodd" clip-rule="evenodd" d="M187.211 2.99621C191.093 2.93196 194.996 4.36466 197.958 7.29522C200.919 10.2258 202.368 14.0861 202.303 17.928C198.421 17.9923 194.518 16.5596 191.556 13.629C188.593 10.6985 187.147 6.83724 187.211 2.99621Z" fill="#CCED00"/>
<path fill-rule="evenodd" clip-rule="evenodd" d="M217.4 2.99621C213.518 2.93196 209.615 4.36466 206.654 7.29522C203.692 10.2258 202.244 14.0861 202.308 17.928C206.191 17.9923 210.094 16.5596 213.055 13.629C216.018 10.6985 217.465 6.83724 217.4 2.99621Z" fill="#CCED00"/>
</g>
</svg>
