<svg width="127" height="38" viewBox="0 0 127 38" fill="none" xmlns="http://www.w3.org/2000/svg">
<path fill-rule="evenodd" clip-rule="evenodd" d="M114.79 37.3009H120.837V12.7012H114.79V37.3009Z" fill="white"/>
<mask id="mask0" mask-type="alpha" maskUnits="userSpaceOnUse" x="46" y="12" width="68" height="26">
<path fill-rule="evenodd" clip-rule="evenodd" d="M46.7754 12.043H113V37.9694H46.7754V12.043Z" fill="white"/>
</mask>
<g mask="url(#mask0)">
<path fill-rule="evenodd" clip-rule="evenodd" d="M113 37.3019V23.0931C113 15.7216 109.454 12.1253 102.815 12.1253C99.2691 12.1253 96.768 13.2796 94.7225 15.9432C92.9942 13.2796 90.766 12.1253 87.3106 12.1253C84.6322 12.1253 82.8866 12.7819 81.2637 14.4586V12.7022H80.7633H75.2164V19.1759V19.7232L73.0028 22.1927L70.4822 25.0026L66.2734 29.6956C65.0726 31.034 63.1881 32.2991 60.954 32.4754C60.6551 32.4991 60.353 32.5276 60.0461 32.5276C55.7902 32.5276 52.3407 29.1583 52.3407 25.0026C52.3407 20.8468 55.7902 17.4775 60.0461 17.4775C64.3014 17.4775 67.7509 20.8468 67.7509 25.0026V25.0131V25.0231V25.0342V25.0442V25.0553C67.7498 25.2617 67.7385 25.4659 67.7207 25.6681L67.7509 25.6343L68.3173 25.0026L71.8101 21.107L73.3162 19.4313V12.7022H68.0347V14.6539C65.8124 13.0146 63.0454 12.043 60.0461 12.043C52.7163 12.043 46.7754 17.8448 46.7754 25.0026C46.7754 31.9302 52.3412 37.5874 59.3424 37.9447C59.5754 37.9558 59.8099 37.9526 60.0461 37.9621C63.0022 38.0783 66.4161 36.8089 69.008 33.9252L73.9734 28.3993L73.9793 28.4785L75.2164 27.1021L80.592 21.1207L81.8571 19.7132C83.0925 18.3351 84.249 17.5424 86.174 17.5424C89.3566 17.5424 91.0843 18.9632 91.0843 23.8034V37.3019H97.1322V25.1799C97.1322 19.3184 98.86 17.5424 102.225 17.5424C105.044 17.5424 106.953 18.874 106.953 23.8034V37.3019H113ZM68.1384 37.3019H73.3162V31.5417L68.1384 37.3019ZM75.2164 29.5124V37.3019H81.2637V25.1799C81.2637 24.2362 81.301 23.3986 81.3778 22.6566L75.2164 29.5124Z" fill="white"/>
</g>
<path fill-rule="evenodd" clip-rule="evenodd" d="M46.5619 18.074V12.7007H42.9248V4.48633H36.8775V12.7007H33.9219V18.074H36.8775V37.3009H42.9248V18.074H46.5619Z" fill="white"/>
<mask id="mask1" mask-type="alpha" maskUnits="userSpaceOnUse" x="0" y="0" width="127" height="38">
<path fill-rule="evenodd" clip-rule="evenodd" d="M0 37.9684H126.651V0.527344H0V37.9684Z" fill="white"/>
</mask>
<g mask="url(#mask1)">
<path fill-rule="evenodd" clip-rule="evenodd" d="M26.3164 37.3009H32.3638V12.7012H26.3164V37.3009Z" fill="white"/>
<path fill-rule="evenodd" clip-rule="evenodd" d="M25.0984 12.7012H18.2783L12.5492 27.9487L6.72884 12.7012H0L10.1389 37.3009H14.959L25.0984 12.7012Z" fill="white"/>
<path fill-rule="evenodd" clip-rule="evenodd" d="M109.064 1.72186C111.325 1.68544 113.599 2.50878 115.325 4.19397C117.05 5.87917 117.894 8.09953 117.856 10.3083C115.594 10.3452 113.321 9.52136 111.595 7.83617C109.869 6.15097 109.026 3.93114 109.064 1.72186Z" fill="white"/>
<path fill-rule="evenodd" clip-rule="evenodd" d="M126.65 1.72186C124.388 1.68544 122.115 2.50878 120.39 4.19397C118.664 5.87917 117.82 8.09953 117.858 10.3083C120.12 10.3452 122.393 9.52136 124.118 7.83617C125.845 6.15097 126.688 3.93114 126.65 1.72186Z" fill="white"/>
</g>
</svg>
